<!-- Generator: Adobe Illustrator 19.1.0, SVG Export Plug-In  -->
<svg version="1.1"
	 xmlns="http://www.w3.org/2000/svg" xmlns:xlink="http://www.w3.org/1999/xlink" xmlns:a="http://ns.adobe.com/AdobeSVGViewerExtensions/3.0/"
	 x="0px" y="0px" width="217.2px" height="74.74px" viewBox="0 0 217.2 74.74" style="enable-background:new 0 0 217.2 74.74;"
	 xml:space="preserve">
<style type="text/css">
	.st0{fill:#88C0EA;}
	.st1{font-family:'GloucesterMT-ExtraCondensed';}
	.st2{font-size:68.2667px;}
</style>
<defs>
</defs>
<g>
	<path class="st0" d="M26.333,14.373v39.466c0,1.156,0.426,2.022,1.28,2.6c0.568,0.378,0.853,0.822,0.853,1.333v1.5
		c0,0.511-0.288,0.767-0.864,0.767H17.231c-0.488,0-0.731-0.233-0.731-0.7v-1.566c0-0.489,0.278-0.934,0.833-1.333
		c0.867-0.6,1.3-1.467,1.3-2.6v-19.1h-7.7v19.1c0,1.156,0.422,2.022,1.267,2.6c0.578,0.378,0.867,0.822,0.867,1.333v1.5
		c0,0.511-0.289,0.767-0.867,0.767H1.8c-0.489,0-0.733-0.233-0.733-0.7v-1.566c0-0.489,0.288-0.934,0.866-1.333
		c0.845-0.6,1.267-1.467,1.267-2.6V14.373c0-1.133-0.422-1.989-1.267-2.567c-0.578-0.377-0.866-0.833-0.866-1.367V8.973
		c0-0.511,0.288-0.767,0.866-0.767h10.4c0.488,0,0.733,0.233,0.733,0.7v1.533c0,0.512-0.289,0.967-0.867,1.367
		c-0.845,0.6-1.267,1.456-1.267,2.567v15.7h7.7v-15.7c0-1.133-0.433-1.989-1.3-2.567c-0.578-0.377-0.867-0.833-0.867-1.367V8.973
		c0-0.511,0.288-0.767,0.864-0.767h10.372c0.487,0,0.731,0.233,0.731,0.7v1.533c0,0.512-0.273,0.967-0.82,1.367
		C26.76,12.406,26.333,13.262,26.333,14.373z"/>
	<path class="st0" d="M49.4,51.906c-0.512,5.889-3.167,8.833-7.967,8.833c-3.178,0-5.7-1.344-7.567-4.034
		c-1.867-2.688-2.8-6.711-2.8-12.066c0-5.2,0.883-9.289,2.65-12.267c1.767-2.978,4.139-4.467,7.117-4.467
		c2.645,0,4.778,1.156,6.4,3.467c1.622,2.312,2.434,5.367,2.434,9.167v2.8c0,0.534-0.278,0.8-0.833,0.8h-10.4v2.733
		c0,3,0.289,5.3,0.868,6.9c0.578,1.6,1.591,2.4,3.037,2.4c1.69,0,2.859-1.622,3.504-4.867L49.4,51.906z M43.267,40.473v-4.6
		c0-3.2-0.823-4.8-2.467-4.8c-1.578,0-2.367,2.045-2.367,6.133v3.267H43.267z"/>
	<path class="st0" d="M70.867,51.906C70.355,57.795,67.7,60.74,62.9,60.74c-3.178,0-5.7-1.344-7.567-4.034
		c-1.867-2.688-2.8-6.711-2.8-12.066c0-5.2,0.883-9.289,2.65-12.267c1.767-2.978,4.139-4.467,7.117-4.467
		c2.645,0,4.778,1.156,6.4,3.467c1.622,2.312,2.434,5.367,2.434,9.167v2.8c0,0.534-0.278,0.8-0.833,0.8H59.9v2.733
		c0,3,0.289,5.3,0.868,6.9c0.578,1.6,1.591,2.4,3.037,2.4c1.69,0,2.859-1.622,3.504-4.867L70.867,51.906z M64.733,40.473v-4.6
		c0-3.2-0.823-4.8-2.467-4.8c-1.578,0-2.367,2.045-2.367,6.133v3.267H64.733z"/>
	<path class="st0" d="M81.7,8.206V54.74c0,1.156,0.478,1.978,1.433,2.466c0.4,0.223,0.6,0.545,0.6,0.967v1.233
		c0,0.422-0.245,0.633-0.733,0.633h-9.2c-0.489,0-0.733-0.211-0.733-0.633v-1.233c0-0.444,0.211-0.767,0.633-0.967
		c0.933-0.466,1.4-1.288,1.4-2.465V13.737c0-1.199-0.478-2.042-1.434-2.531c-0.4-0.202-0.6-0.495-0.6-0.877V9.08
		c0-0.405,0.244-0.607,0.733-0.607L81.7,8.206z"/>
	<path class="st0" d="M101.1,38.406h8.4c0.555,0,0.905,0.062,1.05,0.183c0.144,0.123,0.216,0.383,0.216,0.784
		c0,0.178-0.033,0.566-0.1,1.167c-0.111,1.445-0.167,2.645-0.167,3.6v9.333c0,0.623,0.167,1.089,0.5,1.4
		c0.267,0.222,0.4,0.522,0.4,0.9v1.2c0,0.467-0.278,0.895-0.833,1.284c-0.556,0.389-1.7,0.895-3.434,1.517
		c-1.733,0.622-3.667,0.933-5.8,0.933c-10.067,0-15.1-8.206-15.1-24.618c0-4.686,0.489-9.167,1.467-13.441
		c0.978-4.275,2.661-7.867,5.05-10.777c2.389-2.909,4.938-4.364,7.65-4.364c1.355,0,2.833,0.38,4.434,1.14
		c0.467,0.224,0.833,0.335,1.1,0.335c0.133,0,0.388-0.09,0.767-0.271c0.289-0.136,0.533-0.204,0.733-0.204h1.3
		c0.622,0,0.933,0.3,0.933,0.9v11c0,0.645-0.278,0.967-0.833,0.967h-1.4c-0.445,0-0.706-0.05-0.784-0.15
		c-0.078-0.1-0.261-0.805-0.55-2.116c-1.111-5.178-3.056-7.767-5.833-7.767c-1.333,0-2.433,0.611-3.3,1.833s-1.483,4.047-1.85,8.477
		s-0.55,8.843-0.55,13.24c0,4.619,0.177,8.422,0.533,11.408c0.355,2.987,0.777,5.241,1.267,6.762
		c0.489,1.521,1.072,2.559,1.75,3.114c0.678,0.555,1.472,0.833,2.383,0.833c1.955,0,2.934-1.4,2.934-4.2v-7.2
		c0-1.245-0.156-2.139-0.467-2.684c-0.312-0.544-0.967-1.027-1.967-1.45c-0.489-0.2-0.733-0.5-0.733-0.9v-1.4
		C100.267,38.662,100.544,38.406,101.1,38.406z"/>
	<path class="st0" d="M121,35.339c1.466-4.777,3.521-7.167,6.167-7.167c1.066,0,1.905,0.367,2.517,1.1
		c0.611,0.733,0.917,1.6,0.917,2.6s-0.289,1.85-0.867,2.55c-0.578,0.7-1.333,1.05-2.267,1.05c-1.022,0-1.956-0.502-2.8-1.508
		c-1.6,2.557-2.4,5.614-2.4,9.17v11.337c0,1,0.422,1.901,1.267,2.701c0.355,0.312,0.533,0.545,0.533,0.7v1.667
		c0,0.333-0.145,0.5-0.433,0.5h-9.1c-0.267,0-0.4-0.111-0.4-0.333V57.64c0-0.2,0.155-0.367,0.466-0.5
		c0.711-0.333,1.067-0.967,1.067-1.9V34.673c0-1.178-0.367-2.144-1.1-2.9c-0.289-0.311-0.433-0.555-0.433-0.733v-1.633
		c0-0.444,0.311-0.678,0.933-0.7l5.934-0.1V35.339z"/>
	<path class="st0" d="M143.4,40.006v-4.667c0-2.755-1.066-4.133-3.2-4.133c-0.756,0-1.133,0.233-1.133,0.7
		c0,0.178,0.066,0.445,0.2,0.8c0.267,0.645,0.4,1.2,0.4,1.667c0,0.845-0.278,1.562-0.833,2.15c-0.556,0.589-1.323,0.883-2.3,0.883
		c-1.066,0-1.922-0.328-2.566-0.983c-0.645-0.655-0.967-1.517-0.967-2.583c0-1.755,0.783-3.183,2.35-4.283
		c1.566-1.1,3.383-1.65,5.45-1.65c2.911,0,5.172,0.783,6.784,2.35c1.611,1.566,2.417,3.783,2.417,6.65v16.6
		c0,0.911,0.094,1.605,0.283,2.083c0.188,0.479,0.605,0.784,1.25,0.917c0.534,0.111,0.8,0.4,0.8,0.867v1.433
		c0,1.178-0.91,1.767-2.728,1.767c-2.44,0-4.125-1.177-5.056-3.533c-2.136,2.467-4.194,3.7-6.175,3.7
		c-1.892,0-3.449-0.784-4.673-2.35c-1.224-1.567-1.835-3.572-1.835-6.017C131.867,46.106,135.711,41.984,143.4,40.006z
		 M143.4,43.406c-3.133,1.156-4.7,3.7-4.7,7.633c0,3.089,0.811,4.633,2.433,4.633c0.711,0,1.267-0.35,1.667-1.05
		c0.4-0.7,0.6-1.472,0.6-2.317V43.406z"/>
	<path class="st0" d="M166.767,29.906V13.735c0-1.22-0.466-2.062-1.4-2.529c-0.422-0.202-0.633-0.495-0.633-0.877V9.08
		c0-0.405,0.255-0.607,0.767-0.607l7.867-0.267v46.733c0,1,0.278,1.723,0.833,2.167c0.267,0.222,0.4,0.589,0.4,1.1v1.434
		c0,0.4-0.2,0.6-0.6,0.6h-7.233v-3.167c-1.8,2.267-3.656,3.4-5.566,3.4c-4.822,0-7.233-4.8-7.233-14.4
		c0-12.111,2.611-18.167,7.833-18.167C163.333,27.906,164.989,28.573,166.767,29.906z M166.767,33.206
		c-0.933-0.711-1.778-1.066-2.533-1.066c-1.467,0-2.361,1.078-2.683,3.233c-0.323,2.156-0.483,4.566-0.483,7.233v5.933
		c0,5.133,0.933,7.7,2.8,7.7c1.044,0,2.011-0.689,2.9-2.067V33.206z"/>
	<path class="st0" d="M195.733,51.906c-0.512,5.889-3.167,8.833-7.967,8.833c-3.178,0-5.7-1.344-7.567-4.034
		c-1.867-2.688-2.8-6.711-2.8-12.066c0-5.2,0.883-9.289,2.65-12.267c1.767-2.978,4.139-4.467,7.117-4.467
		c2.645,0,4.778,1.156,6.4,3.467C195.188,33.685,196,36.74,196,40.54v2.8c0,0.534-0.278,0.8-0.833,0.8h-10.4v2.733
		c0,3,0.289,5.3,0.868,6.9c0.578,1.6,1.591,2.4,3.037,2.4c1.69,0,2.859-1.622,3.504-4.867L195.733,51.906z M189.6,40.473v-4.6
		c0-3.2-0.823-4.8-2.467-4.8c-1.578,0-2.367,2.045-2.367,6.133v3.267H189.6z"/>
	<path class="st0" d="M207.934,27.906c2.177,0,3.972,0.545,5.383,1.633c1.411,1.089,2.117,2.467,2.117,4.133
		c0,0.956-0.328,1.778-0.983,2.467c-0.656,0.689-1.506,1.033-2.55,1.033c-0.845,0-1.595-0.25-2.25-0.75
		c-0.656-0.5-0.983-1.217-0.983-2.15c0-0.377,0.102-0.8,0.305-1.267c0.136-0.311,0.203-0.544,0.203-0.7
		c0-0.777-0.59-1.167-1.77-1.167c-0.846,0-1.598,0.306-2.254,0.917c-0.657,0.611-0.985,1.461-0.985,2.55c0,0.933,0.3,1.816,0.9,2.65
		c0.6,0.833,2.177,2.172,4.733,4.017c2.467,1.778,4.189,3.417,5.167,4.917c0.978,1.5,1.467,3.195,1.467,5.083
		c0,3-0.967,5.328-2.9,6.983c-1.933,1.656-4.233,2.483-6.9,2.483c-2.533,0-4.583-0.606-6.15-1.817
		c-1.567-1.211-2.35-2.75-2.35-4.617c0-1.022,0.311-1.905,0.934-2.65c0.622-0.744,1.521-1.117,2.7-1.117
		c2.133,0,3.2,1.011,3.2,3.033c0,0.333-0.068,0.767-0.204,1.3c-0.137,0.489-0.204,0.833-0.204,1.033
		c0,1.089,0.778,1.633,2.336,1.633c1.179,0,2.158-0.372,2.937-1.117c0.778-0.744,1.168-1.594,1.168-2.55
		c0-1.044-0.339-2.005-1.017-2.883c-0.678-0.878-2.006-2.072-3.983-3.583c-2.667-2.044-4.545-3.805-5.633-5.283
		c-1.089-1.478-1.633-3.25-1.633-5.317c0-2.644,0.933-4.789,2.8-6.433S205.533,27.906,207.934,27.906z"/>
</g>
</svg>